<svg width="2000" height="565" viewBox="0 0 2000 565" fill="none" xmlns="http://www.w3.org/2000/svg">
<path fill-rule="evenodd" clip-rule="evenodd" d="M1162 373.104C1150.94 368.571 1142.1 361.861 1135.48 352.976C1128.86 344.091 1125.37 333.392 1125.01 320.88H1174.51C1175.24 327.952 1177.69 333.347 1181.86 337.064C1186.03 340.781 1191.47 342.64 1198.18 342.64C1205.07 342.64 1210.51 341.053 1214.5 337.88C1218.49 334.707 1220.48 330.309 1220.48 324.688C1220.48 319.973 1218.89 316.075 1215.72 312.992C1212.55 309.909 1208.65 307.371 1204.02 305.376C1199.4 303.381 1192.83 301.115 1184.3 298.576C1171.97 294.768 1161.91 290.96 1154.11 287.152C1146.31 283.344 1139.61 277.723 1133.98 270.288C1128.36 262.853 1125.55 253.152 1125.55 241.184C1125.55 223.413 1131.99 209.496 1144.86 199.432C1157.74 189.368 1174.51 184.336 1195.18 184.336C1216.22 184.336 1233.17 189.368 1246.05 199.432C1258.92 209.496 1265.81 223.504 1266.72 241.456H1216.4C1216.04 235.291 1213.77 230.44 1209.6 226.904C1205.43 223.368 1200.08 221.6 1193.55 221.6C1187.93 221.6 1183.4 223.096 1179.95 226.088C1176.51 229.08 1174.78 233.387 1174.78 239.008C1174.78 245.173 1177.69 249.979 1183.49 253.424C1189.29 256.869 1198.36 260.587 1210.69 264.576C1223.02 268.747 1233.04 272.736 1240.74 276.544C1248.45 280.352 1255.11 285.883 1260.74 293.136C1266.36 300.389 1269.17 309.728 1269.17 321.152C1269.17 332.032 1266.4 341.915 1260.87 350.8C1255.34 359.685 1247.32 366.757 1236.8 372.016C1226.28 377.275 1213.86 379.904 1199.54 379.904C1185.57 379.904 1173.06 377.637 1162 373.104ZM1382.32 338.56V378H1358.66C1341.79 378 1328.65 373.875 1319.22 365.624C1309.79 357.373 1305.07 343.909 1305.07 325.232V264.848H1286.58V226.224H1305.07V189.232H1351.58V226.224H1382.05V264.848H1351.58V325.776C1351.58 330.309 1352.67 333.573 1354.85 335.568C1357.02 337.563 1360.65 338.56 1365.73 338.56H1382.32ZM1437.13 370.656C1425.25 364.309 1415.91 355.243 1409.11 343.456C1402.31 331.669 1398.91 317.888 1398.91 302.112C1398.91 286.517 1402.36 272.781 1409.25 260.904C1416.14 249.027 1425.57 239.915 1437.54 233.568C1449.5 227.221 1462.92 224.048 1477.79 224.048C1492.66 224.048 1506.08 227.221 1518.05 233.568C1530.02 239.915 1539.45 249.027 1546.34 260.904C1553.23 272.781 1556.67 286.517 1556.67 302.112C1556.67 317.707 1553.18 331.443 1546.2 343.32C1539.22 355.197 1529.7 364.309 1517.64 370.656C1505.58 377.003 1492.12 380.176 1477.25 380.176C1462.38 380.176 1449.01 377.003 1437.13 370.656ZM1499.96 330.128C1506.22 323.6 1509.34 314.261 1509.34 302.112C1509.34 289.963 1506.31 280.624 1500.23 274.096C1494.16 267.568 1486.68 264.304 1477.79 264.304C1468.73 264.304 1461.2 267.523 1455.22 273.96C1449.23 280.397 1446.24 289.781 1446.24 302.112C1446.24 314.261 1449.19 323.6 1455.08 330.128C1460.97 336.656 1468.36 339.92 1477.25 339.92C1486.13 339.92 1493.7 336.656 1499.96 330.128ZM1716.47 241.864C1727.08 253.379 1732.38 269.2 1732.38 289.328V378H1686.14V295.584C1686.14 285.429 1683.51 277.541 1678.26 271.92C1673 266.299 1665.93 263.488 1657.04 263.488C1648.15 263.488 1641.08 266.299 1635.82 271.92C1630.57 277.541 1627.94 285.429 1627.94 295.584V378H1581.42V226.224H1627.94V246.352C1632.65 239.643 1639 234.339 1646.98 230.44C1654.95 226.541 1663.93 224.592 1673.9 224.592C1691.67 224.592 1705.86 230.349 1716.47 241.864ZM1907.01 313.264H1801.74C1802.47 322.693 1805.51 329.901 1810.86 334.888C1816.21 339.875 1822.78 342.368 1830.58 342.368C1842.18 342.368 1850.25 337.472 1854.78 327.68H1904.29C1901.75 337.653 1897.17 346.629 1890.55 354.608C1883.93 362.587 1875.64 368.843 1865.66 373.376C1855.69 377.909 1844.54 380.176 1832.21 380.176C1817.34 380.176 1804.1 377.003 1792.5 370.656C1780.89 364.309 1771.82 355.243 1765.3 343.456C1758.77 331.669 1755.5 317.888 1755.5 302.112C1755.5 286.336 1758.72 272.555 1765.16 260.768C1771.6 248.981 1780.62 239.915 1792.22 233.568C1803.83 227.221 1817.16 224.048 1832.21 224.048C1846.9 224.048 1859.95 227.131 1871.38 233.296C1882.8 239.461 1891.73 248.256 1898.17 259.68C1904.61 271.104 1907.82 284.432 1907.82 299.664C1907.82 304.016 1907.55 308.549 1907.01 313.264ZM1860.22 287.424C1860.22 279.445 1857.5 273.099 1852.06 268.384C1846.62 263.669 1839.82 261.312 1831.66 261.312C1823.87 261.312 1817.29 263.579 1811.94 268.112C1806.59 272.645 1803.29 279.083 1802.02 287.424H1860.22Z" fill="#24355B"/>
<path fill-rule="evenodd" clip-rule="evenodd" d="M658.528 305.92L698.24 378H750.736L706.672 302.384C720.635 298.213 731.197 291.141 738.36 281.168C745.523 271.195 749.104 259.861 749.104 247.168C749.104 235.925 746.475 225.725 741.216 216.568C735.957 207.411 728.024 200.203 717.416 194.944C706.808 189.685 693.979 187.056 678.928 187.056H600.864V378H647.376V305.92H658.528ZM676.208 273.008H647.376V225.68H676.208C684.731 225.68 691.123 227.765 695.384 231.936C699.645 236.107 701.776 241.819 701.776 249.072C701.776 256.688 699.645 262.581 695.384 266.752C691.123 270.923 684.731 273.008 676.208 273.008Z" fill="#FD627A"/>
<path fill-rule="evenodd" clip-rule="evenodd" d="M815.2 313.264H920.464C921.008 308.549 921.28 304.016 921.28 299.664C921.28 284.432 918.061 271.104 911.624 259.68C905.187 248.256 896.256 239.461 884.832 233.296C873.408 227.131 860.352 224.048 845.664 224.048C830.613 224.048 817.285 227.221 805.68 233.568C794.075 239.915 785.053 248.981 778.616 260.768C772.179 272.555 768.96 286.336 768.96 302.112C768.96 317.888 772.224 331.669 778.752 343.456C785.28 355.243 794.347 364.309 805.952 370.656C817.557 377.003 830.795 380.176 845.664 380.176C857.995 380.176 869.147 377.909 879.12 373.376C889.093 368.843 897.389 362.587 904.008 354.608C910.627 346.629 915.205 337.653 917.744 327.68H868.24C863.707 337.472 855.637 342.368 844.032 342.368C836.235 342.368 829.661 339.875 824.312 334.888C818.963 329.901 815.925 322.693 815.2 313.264ZM865.52 268.384C870.96 273.099 873.68 279.445 873.68 287.424H815.472C816.741 279.083 820.051 272.645 825.4 268.112C830.749 263.579 837.323 261.312 845.12 261.312C853.28 261.312 860.08 263.669 865.52 268.384Z" fill="#FD627A"/>
<path fill-rule="evenodd" clip-rule="evenodd" d="M969.424 233.568C959.269 239.915 951.245 248.981 945.352 260.768C939.459 272.555 936.512 286.245 936.512 301.84C936.512 317.435 939.459 331.171 945.352 343.048C951.245 354.925 959.269 364.083 969.424 370.52C979.579 376.957 990.912 380.176 1003.42 380.176C1014.12 380.176 1023.51 378 1031.58 373.648C1039.65 369.296 1045.86 363.493 1050.21 356.24V378H1096.72V176.72H1050.21V247.168C1045.49 240.096 1039.01 234.475 1030.76 230.304C1022.51 226.133 1013.4 224.048 1003.42 224.048C990.912 224.048 979.579 227.221 969.424 233.568ZM1017.02 264.576C1026.27 264.576 1034.11 267.931 1040.55 274.64C1046.99 281.349 1050.21 290.507 1050.21 302.112C1050.21 313.717 1046.99 322.875 1040.55 329.584C1034.11 336.293 1026.27 339.648 1017.02 339.648C1007.78 339.648 999.933 336.248 993.496 329.448C987.059 322.648 983.84 313.445 983.84 301.84C983.84 290.235 987.059 281.123 993.496 274.504C999.933 267.885 1007.78 264.576 1017.02 264.576Z" fill="#FD627A"/>
<path fill-rule="evenodd" clip-rule="evenodd" d="M412.915 276.188L363.241 194.423L388.97 152.516L464.103 276.188H412.915ZM243.827 391.099H344.255L369.325 432H219.208L243.827 391.099ZM344.219 183.358H243.706L219.138 142.361H369.388L344.219 183.358ZM344.143 369.099H243.678L193.938 287.229L243.678 205.358H344.143L393.881 287.229L344.143 369.099ZM199.628 152.604L224.635 194.332L174.92 276.162H124.565L199.628 152.604ZM124.542 298.162H174.838L224.694 380.224L199.663 421.813L124.542 298.162ZM388.937 421.899L363.259 380.005L412.965 298.188H464.094L388.937 421.899ZM398.39 125.65C396.395 122.366 392.831 120.361 388.989 120.361H199.663C195.82 120.361 192.256 122.366 190.262 125.65L95.5996 281.469C93.4676 284.978 93.4666 289.382 95.5986 292.891L190.262 448.71C192.256 451.995 195.82 454 199.663 454H388.989C392.831 454 396.395 451.995 398.39 448.71L493.053 292.891C495.186 289.382 495.186 284.978 493.053 281.469L398.39 125.65Z" fill="#FD627A"/>
<path fill-rule="evenodd" clip-rule="evenodd" d="M350.844 304.363C345.713 301.114 338.916 302.637 335.665 307.77L316.196 338.509C312.946 343.641 314.471 350.437 319.603 353.688C321.429 354.844 323.466 355.396 325.479 355.396C329.122 355.396 332.688 353.587 334.782 350.281L354.251 319.542C357.502 314.41 355.976 307.614 350.844 304.363Z" fill="#FD627A"/>
<path fill-rule="evenodd" clip-rule="evenodd" d="M366.849 276.058C361.615 272.978 354.87 274.725 351.79 279.962L350.358 282.397C347.278 287.633 349.026 294.375 354.263 297.455C356.014 298.486 357.934 298.976 359.829 298.976C363.599 298.976 367.271 297.036 369.321 293.551L370.753 291.117C373.833 285.88 372.085 279.139 366.849 276.058Z" fill="#FD627A"/>
</svg>
